<?xml version="1.0" encoding="UTF-8"?>
<svg width="238px" height="48px" viewBox="0 0 238 48" version="1.1" xmlns="http://www.w3.org/2000/svg" xmlns:xlink="http://www.w3.org/1999/xlink">
    <title>symboli ja teksti</title>
    <g id="Eevan-logotyöstö-helmi-2022" stroke="none" stroke-width="1" fill="none" fill-rule="evenodd">
        <g id="Kirjautusmipainikkeiden-logot" transform="translate(-228.000000, -175.000000)">
            <g id="symboli-ja-teksti" transform="translate(228.000000, 175.000000)">
                <g id="Ribbon-thicker">
                    <path d="M62.3838384,5.49634434 C55.4040146,5.34518438 50.1374132,17.5303176 48.34224,17.5303176 C48.0576366,17.5303176 47.883767,16.1925815 47.7212764,15.1668641 C47.0485134,10.9200658 41.0356517,10.0257738 41.7569099,14.1894115 C42.502575,18.4939441 43.7136401,22.7878788 48.34224,22.7878788 C54.4548538,22.7878788 58.0465407,11.2212443 62.3838384,11.2212443 C62.3838384,8.69310838 62.3838384,6.81527062 62.3838384,5.49634434 Z" id="5" fill="#0041DC"></path>
                    <path d="M48.0204141,16.4234033 C47.0750304,13.8614754 47.5181739,0 39.2202931,0 C34.5667355,4.65047187 37.2174711,9.63934704 37.8462557,7.92426762 C38.3217436,6.62732179 38.8034732,5.03620664 39.2202931,5.03620664 C40.7217064,5.03620664 41.0267294,10.0229092 41.750925,14.1874815 C42.499627,18.4929803 43.7156243,22.7878788 48.3630749,22.7878788 C50.846726,22.7878788 52.9158792,20.8933488 54.7878788,18.6375988 C50.1577097,21.9846864 49.1090329,19.3734887 48.0204141,16.4234033 Z" id="4" fill="#5BCA13"></path>
                    <path d="M45.4141414,4.59809877 C44.2365235,1.98790794 42.3607066,0 39.2412697,0 C29.9045953,0 30.4020479,21.8535944 29.3444578,21.8535944 C29.278757,21.8535944 29.2294651,19.8785075 29.0750526,18.8052484 C28.6112035,15.5812222 21.5434414,29.2525253 29.3444578,29.2525253 C34.2061841,29.2525253 35.2134993,21.6144374 36.1986009,15.1503013 C36.8363984,10.9651396 37.8996102,7.43809512 38.7136541,6.21564259 C40.4035279,3.6779532 43.2734073,0.895833939 45.4141414,4.59809877 Z" id="3" fill="#0041DC"></path>
                    <path d="M29.2908568,20.3186111 C29.0421143,18.8111322 28.5037599,9.05050505 21.5322845,9.05050505 C17.0336582,9.05050505 14.9653514,12.7720868 13.2232895,17.7863648 C9.62002059,28.1578637 6.59312753,43.6434637 2.16098625,42.034762 C2.16098625,42.034762 1.4406575,43.8282323 0,47.4151727 C1.07229423,47.8050576 2.02601212,48 2.86115366,48 C9.86756119,48 13.2331266,37.7556953 15.9737155,28.6004018 C18.1357265,21.3779234 20.05343,14.0362873 21.2988954,14.0362873 C24.7019852,14.0362873 21.5322845,29.1685625 29.3508206,29.1685625 C32.5848958,29.1685625 34.1171926,25.8050765 35.0707071,21.6536355 C33.4816014,25.0175136 30.2390452,26.0650112 29.2908568,20.3186111 Z" id="2" fill="#5BCA13"></path>
                    <path d="M27.7979798,13.9113868 C26.7464314,11.363451 24.8806065,9.05050505 21.4931176,9.05050505 C17.0026742,9.05050505 14.9381296,12.7720868 13.1992366,17.7863648 C9.60252189,28.1578637 6.58113471,43.6434637 2.15705544,42.034762 C2.15705544,42.034762 1.43803696,43.8282323 0,47.4151727 C1.07034374,47.8050576 2.02232683,48 2.85594925,48 C9.84961222,48 13.2090557,37.7556953 15.9446595,28.6004018 C17.7873929,22.4332938 19.4523243,16.7228738 20.6735228,15.1857058 C21.6859018,13.9113868 24.8806065,9.59728951 27.7979798,13.9113868 Z" id="1" fill="#0041DC"></path>
                </g>
                <g id="MPASS" transform="translate(77.064835, 6.529508)" fill="#141414" fill-rule="nonzero">
                    <polygon id="Path" points="25.3694276 0.249535354 22.2086465 0.249535354 12.8094815 21.2520943 3.16078114 0.249535354 0 0.249535354 0 29.861064 3.16078114 29.861064 3.16078114 7.36129293 11.3954478 25.2030707 14.0987475 25.2030707 22.2086465 7.36129293 22.2086465 29.861064 25.3694276 29.861064"></polygon>
                    <path d="M33.9368081,0.249535354 L33.9368081,29.861064 L37.0975892,29.861064 L37.0975892,17.6754209 L44.9579529,17.6754209 C50.322963,17.6754209 54.1075825,14.2235152 54.1075825,8.9416835 C54.1075825,3.65985185 50.322963,0.249535354 44.9579529,0.249535354 L33.9368081,0.249535354 Z M44.7084175,3.07760269 C48.4098586,3.07760269 50.9468013,5.0322963 50.9468013,8.9416835 C50.9468013,12.8510707 48.4098586,14.8473535 44.7084175,14.8473535 L37.0975892,14.8473535 L37.0975892,3.07760269 L44.7084175,3.07760269 Z" id="Shape"></path>
                    <path d="M67.8320269,0.249535354 L65.1703165,0.249535354 L54.2739394,29.861064 L57.6426667,29.861064 L60.0132525,23.1651987 L72.9475017,23.1651987 L75.3180875,29.861064 L78.6868148,29.861064 L67.8320269,0.249535354 Z M66.5011717,4.74117172 L71.9909495,20.4203098 L60.9698047,20.4203098 L66.5011717,4.74117172 Z" id="Shape"></path>
                    <path d="M91.2467609,0 C85.3826801,0 81.7644175,3.28554882 81.7644175,8.31784512 C81.7644175,10.7300202 82.5546128,12.5599461 84.0518249,13.8908013 C85.3826801,15.0552997 87.1294276,15.7623165 89.4584242,16.1366195 L92.91033,16.6356902 C95.0313805,16.968404 95.863165,17.2595286 96.7781279,18.0913131 C97.7762694,18.9646869 98.2337508,20.2123636 98.2337508,21.7927542 C98.2337508,25.2862492 95.5720404,27.282532 91.2051717,27.282532 C87.8780337,27.282532 85.5906263,26.5339259 83.136862,24.0801616 L81.0158114,26.2012121 C83.7607003,28.9876902 86.7135354,30.1105993 91.1219933,30.1105993 C97.3187879,30.1105993 101.352943,26.908229 101.352943,21.7095758 C101.352943,19.2558114 100.43798,17.2595286 98.8575892,15.8870842 C97.526734,14.6809966 96.237468,14.1819259 93.4925791,13.7660337 L90.0406734,13.2253737 C88.5018721,12.9758384 87.0878384,12.4767677 86.1728754,11.6865724 C85.2579125,10.8963771 84.8420202,9.69028956 84.8420202,8.23466667 C84.8420202,4.90752862 87.1294276,2.70329966 91.1219933,2.70329966 C94.199596,2.70329966 96.237468,3.5766734 98.0258047,5.28183165 L100.063677,3.2439596 C97.526734,0.998141414 95.0313805,0 91.2467609,0 Z" id="Path"></path>
                    <path d="M115.493279,0 C109.629199,0 106.010936,3.28554882 106.010936,8.31784512 C106.010936,10.7300202 106.801131,12.5599461 108.298343,13.8908013 C109.629199,15.0552997 111.375946,15.7623165 113.704943,16.1366195 L117.156848,16.6356902 C119.277899,16.968404 120.109684,17.2595286 121.024646,18.0913131 C122.022788,18.9646869 122.480269,20.2123636 122.480269,21.7927542 C122.480269,25.2862492 119.818559,27.282532 115.45169,27.282532 C112.124552,27.282532 109.837145,26.5339259 107.38338,24.0801616 L105.26233,26.2012121 C108.007219,28.9876902 110.960054,30.1105993 115.368512,30.1105993 C121.565306,30.1105993 125.599461,26.908229 125.599461,21.7095758 C125.599461,19.2558114 124.684498,17.2595286 123.104108,15.8870842 C121.773253,14.6809966 120.483987,14.1819259 117.739098,13.7660337 L114.287192,13.2253737 C112.748391,12.9758384 111.334357,12.4767677 110.419394,11.6865724 C109.504431,10.8963771 109.088539,9.69028956 109.088539,8.23466667 C109.088539,4.90752862 111.375946,2.70329966 115.368512,2.70329966 C118.446114,2.70329966 120.483987,3.5766734 122.272323,5.28183165 L124.310195,3.2439596 C121.773253,0.998141414 119.277899,0 115.493279,0 Z" id="Path"></path>
                </g>
                <g id="id" transform="translate(211.522801, 6.737455)" fill="#5B5757" fill-rule="nonzero">
                    <path d="M3.16078114,9.19121886 L0.166356902,9.19121886 L0.166356902,29.6531178 L3.16078114,29.6531178 L3.16078114,9.19121886 Z M3.36872727,0 L0,0 L0,3.36872727 L3.36872727,3.36872727 L3.36872727,0 Z" id="Shape"></path>
                    <path d="M25.8684983,0.0415892256 L22.8740741,0.0415892256 L22.8740741,11.6033939 C21.1689158,9.48234343 19.3389899,8.9416835 17.0931717,8.9416835 C14.9721212,8.9416835 13.1837845,9.64870034 12.1024646,10.7300202 C10.0645926,12.8094815 9.60711111,16.1366195 9.60711111,19.4221684 C9.60711111,22.7077172 10.0645926,26.0764444 12.1024646,28.1143165 C13.1837845,29.1956364 14.9721212,29.9026532 17.0931717,29.9026532 C19.3805791,29.9026532 21.1689158,29.3619933 22.8740741,27.2409428 L22.8740741,29.6531178 L25.8684983,29.6531178 L25.8684983,0.0415892256 Z M17.7170101,11.6033939 C22.2086465,11.6033939 22.8740741,15.4296027 22.8740741,19.4221684 C22.8740741,23.414734 22.2086465,27.2409428 17.7170101,27.2409428 C13.266963,27.2409428 12.6015354,23.414734 12.6015354,19.4221684 C12.6015354,15.4296027 13.266963,11.6033939 17.7170101,11.6033939 Z" id="Shape"></path>
                </g>
            </g>
        </g>
    </g>
</svg>